<?xml version="1.0" standalone="no"?>
<!DOCTYPE svg PUBLIC "-//W3C//DTD SVG 20010904//EN"
 "http://www.w3.org/TR/2001/REC-SVG-20010904/DTD/svg10.dtd">
<svg version="1.0" xmlns="http://www.w3.org/2000/svg"
 width="192.000000pt" height="192.000000pt" viewBox="0 0 192.000000 192.000000"
 preserveAspectRatio="xMidYMid meet">
<metadata>
Created by potrace 1.16, written by Peter Selinger 2001-2019
</metadata>
<g transform="translate(0.000000,192.000000) scale(0.100000,-0.100000)"
fill="#000000" stroke="none">
<path d="M1525 1385 c-22 -8 -41 -15 -42 -15 -1 0 -14 -20 -28 -45 -39 -65
-55 -135 -62 -266 -6 -110 -5 -117 16 -138 44 -44 111 -12 111 54 l0 35 49 0
48 0 6 -42 c7 -49 27 -68 73 -68 36 0 61 19 70 54 9 39 -15 254 -36 314 -38
107 -113 150 -205 117z"/>
<path d="M187 1372 c-15 -16 -17 -47 -17 -229 0 -257 -8 -243 136 -243 116 0
137 10 137 60 0 43 -24 60 -85 60 l-48 0 0 165 c0 152 -2 167 -20 185 -26 26
-81 26 -103 2z"/>
<path d="M522 1374 c-21 -15 -22 -21 -22 -193 0 -168 1 -180 23 -211 35 -54
78 -73 161 -74 83 -1 127 19 163 74 22 31 23 43 23 211 0 172 -1 178 -22 193
-12 9 -32 16 -43 16 -11 0 -31 -7 -43 -16 -21 -15 -22 -21 -22 -175 0 -146 -2
-161 -20 -179 -11 -11 -24 -20 -30 -20 -5 0 -19 9 -30 20 -18 18 -20 33 -20
179 0 154 -1 160 -22 175 -12 9 -34 16 -48 16 -14 0 -36 -7 -48 -16z"/>
<path d="M974 1376 c-18 -13 -19 -28 -19 -231 0 -203 1 -218 19 -231 29 -21
82 -18 106 6 16 16 20 33 20 95 0 68 2 75 20 75 24 0 45 -38 55 -99 9 -57 43
-91 88 -91 40 0 67 25 67 62 0 53 -40 156 -70 181 l-29 25 19 25 c23 29 70
126 70 145 0 22 -39 52 -68 52 -43 0 -68 -25 -87 -83 -9 -30 -27 -67 -41 -83
l-23 -29 -1 78 c0 63 -4 81 -20 97 -24 24 -77 27 -106 6z"/>
<path d="M458 784 c-5 -4 -8 -47 -8 -95 0 -68 3 -88 15 -93 25 -9 45 4 45 30
0 19 5 24 25 24 14 0 34 9 45 20 24 24 27 82 4 101 -17 14 -115 25 -126 13z"/>
<path d="M622 778 c-15 -15 -16 -141 -2 -169 11 -19 68 -27 104 -13 29 11 19
43 -16 52 l-33 8 28 7 c17 5 27 14 27 26 0 20 -25 35 -41 25 -5 -3 -9 1 -9 9
0 8 6 15 13 14 39 -1 48 4 45 26 -3 19 -10 22 -53 25 -30 2 -55 -2 -63 -10z"/>
<path d="M757 783 c-4 -3 -7 -15 -7 -25 0 -16 11 -23 33 -19 4 0 7 -30 7 -68
0 -71 10 -88 45 -75 11 5 15 23 15 76 0 38 4 67 9 64 4 -3 16 1 27 8 15 12 16
16 5 30 -10 11 -30 16 -71 16 -31 0 -60 -3 -63 -7z"/>
<path d="M920 770 c-34 -34 -21 -79 30 -100 16 -7 30 -16 30 -21 0 -13 -11
-11 -30 6 -21 19 -50 10 -50 -16 0 -30 44 -53 88 -46 60 10 81 58 42 97 -16
16 -17 20 -5 20 15 0 19 11 15 40 -5 41 -85 55 -120 20z"/>
<path d="M1073 783 c-20 -8 -18 -179 2 -187 26 -10 45 5 45 35 0 19 5 29 15
29 10 0 15 -10 15 -29 0 -30 19 -45 45 -35 12 5 15 25 15 94 0 92 -6 106 -40
95 -14 -4 -20 -15 -20 -36 0 -41 -28 -39 -32 3 -3 32 -18 43 -45 31z"/>
<path d="M1255 765 c-36 -35 -36 -115 0 -150 30 -31 73 -32 109 -4 23 18 26
28 26 79 0 51 -3 61 -26 79 -36 28 -79 27 -109 -4z"/>
<path d="M1423 784 c-20 -9 -18 -180 2 -188 25 -9 45 4 45 30 0 18 5 24 23 24
41 0 67 27 67 69 0 22 -6 44 -15 51 -17 14 -102 23 -122 14z"/>
</g>
</svg>
